<?xml version="1.0" encoding="utf-8"?>
<svg xmlns="http://www.w3.org/2000/svg" xmlns:xlink="http://www.w3.org/1999/xlink" width="498" height="456">
   <path fill="#7D529A" transform="matrix(1.00201 0 0 1.00201 357.862 177.64)" d="M70.055 -80.305C62.645 -82.405 12.855 -55.005 4.545 -44.165C-8.445 -27.225 -40.4338 2.51513 -52.266 31.45C-55.576 34.25 -57.0962 39.395 -55.3162 44.685C-41.5262 85.705 55.375 19.075 70.055 -80.305C70.055 -80.305 70.055 -80.305 70.055 -80.305Z"></path>
  <path fill="#5D237A" transform="matrix(1.00201 0 0 1.00201 425.292 80.5405)" d="M-1.19 27.9C2.99 23.16 4.83 14.49 6.73 8.67C8.81 2.28 9.78 -5.03 10.11 -11.69C10.44 -18.35 10.83 -25.95 8.86 -31.97C6.83 -38.15 3.61 -40.14 -0.63 -34.8C-6.78 -27.05 -6.26 -17.73 -6.26 -8.22C-6.26 -0.6 -5.64 7.06 -5.74 14.6C-5.86 23.23 -9.44 31.67 -10.83 40.14C-5.47 34.11 0.280001 27.54 2.21 19.42"></path>
  <path fill="#5D237A" transform="matrix(1.00201 0 0 1.00201 407.577 80.6607)" d="M8.58 26.08C14.31 15.16 11.15 -6.35 8.57 -18.67C7.02 -26.05 3.83 -41.05 -4.39 -29.97C-14.31 -16.6 -4.98 -3.58 -1.99 10.58C-1.14 14.59 -3.98 33.35 -1.49 35.49C4.98 41.05 13.31 17.09 11.98 12.54"></path>
  <path fill="#5D237A" transform="matrix(1.00201 0 0 1.00201 396.845 94.6287)" d="M8 15.53C9.73 11.53 7.72 5.56 6.86 1.04C5.91 -3.93 6.04 -12.63 2.93 -16.94C-0.18 -21.25 -2.97 -20.03 -5.14 -16.09C-10.6 -6.16 -4.07 15.71 5.19 21.25C8.9 16.89 10.6 10.82 9.13 4.8"></path>
  <path fill="#5D237A" transform="matrix(1.00201 0 0 1.00201 355.497 161.924)" d="M-4.945 -12.1C12.8266 -30.1062 26.765 -31.96 42.0587 -39.0488C58.825 -39.0488 69.2527 -41.3157 69.665 -53.32C64.725 -59.6 25.925 -57.26 -21.885 -29.04C-20.755 -24.52 -17.735 -20.57 -9.465 -13.79C-25.785 -7.27 -24.535 -31.96 -26.975 -27.34C-32.235 -17.37 -65.285 29.3011 -50.8156 56.5488C-42.2274 37.6957 -4.955 -12.1 -4.955 -12.1C-4.955 -12.1 -4.945 -12.1 -4.945 -12.1Z"></path>
  <path fill="#7D529A" transform="matrix(1.3917 -0.00673438 0.0565197 1.46122 207.321 265.604)" d="M-5.01 13.135C-14.67 15.135 -21.2 9.745 -15.36 -0.985C-11.06 -8.905 -1.65 -15.135 -2.19 -3.995C6.09 -6.065 21.2 -10.065 21.17 -2.615C21.15 1.465 4.97 11.065 -5.01 13.135C-5.01 13.135 -5.01 13.135 -5.01 13.135Z"></path>
  <path fill="#9C80B9" transform="matrix(1.58593 0.251212 -0.228015 1.43948 195.985 260.909)" d="M-5.01 13.135C-14.67 15.135 -21.2 9.745 -15.36 -0.985C-11.06 -8.905 -1.65 -15.135 -2.19 -3.995C6.09 -6.065 21.2 -10.065 21.17 -2.615C21.15 1.465 4.97 11.065 -5.01 13.135C-5.01 13.135 -5.01 13.135 -5.01 13.135Z"></path>
  <path fill="#754091" transform="matrix(1.58593 0.251212 -0.228015 1.43948 191.253 261.738)" d="M-6.86 5.255C-2.18 3.405 0.830004 1.525 6.86 3.215C1.59 1.705 1.21 -1.305 0.650004 -5.255C0.710004 -0.955 -0.0499963 1.725 -6.86 5.255C-6.86 5.255 -6.86 5.255 -6.86 5.255Z"></path>
  <path fill="#7D529A" transform="matrix(1.00201 0 0 1.00201 312.32 239.966)" d="M5.14998 -28.8C18.6019 -29.679 8.79997 -57.0853 35.47 -64.9352C59.73 -72.0752 86.98 -72.0952 104.09 -64.7852C120.46 -57.7852 148.59 3.83475 141.45 22.5848C133.26 44.0748 74.02 46.2547 54.968 43.0268C36.198 40.0138 -10.48 73.91 -46.64 64.98C-70.31 57.84 -93.02 34.6 -100.67 7.82002C-103.35 -1.55998 -130.29 -19.81 -139.96 -21.65C-147.59 -23.1 -104.32 -17.79 -104.32 -17.79C-104.32 -17.79 -126.53 -32.73 -114.51 -34.45C-110.34 -35.05 -75.28 -17.7 5.15999 -28.79C5.15999 -28.79 5.14998 -28.8 5.14998 -28.8Z"></path>
  <clipPath id="cl_1c">
    <path d="M317.48 211.108C330.959 210.227 321.138 182.765 347.861 174.9C372.17 167.745 399.475 167.725 416.619 175.05C433.022 182.064 461.209 243.808 454.055 262.596C445.848 284.129 386.489 286.313 367.399 283.079C348.591 280.06 301.819 314.024 265.586 305.076C241.868 297.922 219.113 274.635 211.447 247.801C208.762 238.402 181.768 220.116 172.078 218.272C164.433 216.819 207.79 222.14 207.79 222.14C207.79 222.14 185.535 207.17 197.58 205.446C201.758 204.845 236.888 222.23 317.49 211.118C317.49 211.118 317.48 211.108 317.48 211.108Z"></path>
  </clipPath>
  <g clip-path="url(#cl_1c)">
    <path fill="#754091" transform="matrix(1.00201 0 0 1.00201 263.742 267.987)" d="M53.01 0.969696C45.73 -9.23032 44.63 -16.8803 52.28 -40.175C7.37 51.9659 -47.74 -43.575 -47.83 -43.635C-52.05 -46.985 -56.84 -49.005 -61.95 -50.325C-58.8 -47.735 -55.86 -45.755 -55.86 -45.755C-55.86 -45.755 -99.13 -51.055 -91.5 -49.615C-81.82 -47.775 -54.89 -29.525 -52.21 -20.145C-44.56 6.625 -21.85 29.865 1.82001 37.015C35.84 45.7779 78.7 16.9497 99.13 15.5197C76.61 12.8197 57.72 7.57971 53 0.979706C53 0.979706 53.01 0.969696 53.01 0.969696Z"></path>
  </g>
  <path fill="#5D237A" transform="matrix(1.00201 0 0 1.00201 171.547 208.623)" d="M2.16 -12.11C-13.77 -15.83 -58.57 -4.97 -32.37 3.37C-5.97 11.77 -2.36 10.67 47.94 15.83C11.24 -1.1 34.91 0.240001 58.57 5.15C58.57 5.15 36.38 -4.12 2.16 -12.12C2.16 -12.12 2.16 -12.11 2.16 -12.11Z"></path>
  <path fill="#7D529A" transform="matrix(1.00201 0 0 1.00201 168.541 209.154)" d="M-35.57 -5.73C-35.57 -5.73 35.57 7.15 35.57 7.15C34.28 6.26 33.36 5.49 32.77 4.83C32.77 4.83 -33.38 -7.15 -33.38 -7.15C-34.23 -6.69 -34.97 -6.22 -35.57 -5.73C-35.57 -5.73 -35.57 -5.73 -35.57 -5.73Z"></path>
  <path fill="#7D529A" transform="matrix(1.00201 0 0 1.00201 185.921 203.172)" d="M-18.275 -7.39C-20.035 -7.45 -21.925 -7.43 -23.875 -7.32C-23.875 -7.32 21.785 7.37 21.785 7.37C22.325 7.39 22.885 7.42 23.465 7.45C23.465 7.45 23.875 6.17 23.875 6.17L-18.275 -7.4C-18.275 -7.4 -18.275 -7.39 -18.275 -7.39Z"></path>
  <path fill="#9C80B9" transform="matrix(1.00201 0 0 1.00201 392.732 230.946)" d="M-12.435 -50.535C3.025 -51.535 5.575 -21.515 5.575 -21.515C5.575 -21.515 6.765 -52.025 22.845 -49.645C38.915 -47.265 59.755 4.535 56.785 25.375C53.805 46.215 -44.895 52.025 -54.395 31.175C-59.755 19.415 -46.805 -48.305 -12.425 -50.535C-12.425 -50.535 -12.435 -50.535 -12.435 -50.535Z"></path>
  <path fill="#5D237A" transform="matrix(1.00201 0.00232086 -0.00227437 0.981937 401.629 221.086)" d="M1.01496 -0.955002C1.01496 -0.955002 -8.36505 -43.825 11.805 -55.505C28.705 -65.295 40.015 -58.705 43.585 -83.115C50.725 -68.825 43.365 -63.245 35.625 -56.105C41.575 -54.345 45.975 -55.325 54.085 -62.655C40.395 -37.645 34.565 -49.805 21.935 -44.795C1.46496 -36.685 1.02496 -0.965004 1.02496 -0.965004C1.02496 -0.965004 1.01496 -0.955002 1.01496 -0.955002Z"></path>
  <path fill="#5D237A" transform="matrix(1.00201 -0.00232086 0.00227437 0.981937 402.631 220.084)" d="M-1.77501 0.935013C-1.77501 0.935013 6.56499 -38.215 -12.495 -49.965C-33.595 -62.985 -40.625 -54.245 -46.945 -82.725C-49.785 -70.795 -49.075 -56.585 -43.385 -49.985C-50.445 -49.015 -53.655 -51.915 -62.305 -59.895C-55.075 -27.105 -32.355 -40.925 -21.435 -38.355C-6.25501 -34.785 -1.78501 0.935013 -1.78501 0.935013C-1.78501 0.935013 -1.77501 0.935013 -1.77501 0.935013Z"></path>
  <path fill="white" transform="matrix(1.00201 0 0 1.00201 435.302 211.482)" d="M-25.3 -18.16C-21.73 -22.33 18.16 -25.9 23.52 -21.73C28.88 -17.56 21.14 17.56 18.16 21.73C15.18 25.9 -22.32 21.73 -24.71 20.54C-27.1 19.35 -28.88 -13.99 -25.31 -18.16C-25.31 -18.16 -25.3 -18.16 -25.3 -18.16Z"></path>
  <path fill="none" stroke="#81D113" stroke-width="4.6399999" stroke-miterlimit="4" transform="matrix(1.00201 0 0 1.00201 435.302 211.482)" d="M-25.3 -18.16C-21.73 -22.33 18.16 -25.9 23.52 -21.73C28.88 -17.56 21.14 17.56 18.16 21.73C15.18 25.9 -22.32 21.73 -24.71 20.54C-27.1 19.35 -28.88 -13.99 -25.31 -18.16C-25.31 -18.16 -25.3 -18.16 -25.3 -18.16Z"></path>
  <path fill="white" transform="matrix(1.00201 0 0 1.00201 362.215 215.951)" d="M27.99 -22.62C26.2 -25 -26.19 -26.79 -29.17 -20.24C-32.15 -13.69 -20.24 17.27 -16.07 22.03C-11.9 26.79 27.39 22.03 29.77 18.46C32.15 14.89 29.77 -20.24 27.98 -22.62C27.98 -22.62 27.99 -22.62 27.99 -22.62Z"></path>
  <path fill="none" stroke="#81D113" stroke-width="4.6399999" stroke-miterlimit="4" transform="matrix(1.00201 0 0 1.00201 362.516 215.951)" d="M27.69 -22.62C25.17 -24.2 -26.49 -26.79 -29.47 -20.24C-32.45 -13.69 -20.54 17.27 -16.37 22.03C-12.2 26.79 27.69 22.03 30.07 18.46C32.45 14.89 32.45 -19.64 27.69 -22.62C27.69 -22.62 27.69 -22.62 27.69 -22.62Z"></path>
  <path fill="none" stroke="#81D113" stroke-width="4.6399999" stroke-miterlimit="4" transform="matrix(1.00201 0 0 1.00201 401.299 210.064)" d="M5.655 0.515C2.015 -3.195 -2.385 -0.975 -5.655 3.195"></path>
  <path transform="matrix(1.00201 0 0 1.00201 446.044 216.552)" d="M0 -6.55C2.13734 -6.55 3.87 -3.61747 3.87 0C3.87 3.61747 2.13734 6.55 0 6.55C-2.13734 6.55 -3.87 3.61747 -3.87 0C-3.87 -3.61747 -2.13734 -6.55 0 -6.55Z"></path>
  <clipPath id="cl_1d">
    <path d="M409.951 193.285C413.528 189.107 453.499 185.53 458.869 189.708C464.24 193.887 456.484 229.077 453.499 233.256C450.513 237.434 412.937 233.256 410.542 232.063C408.147 230.871 406.364 197.464 409.941 193.285C409.941 193.285 409.951 193.285 409.951 193.285Z"></path>
  </clipPath>
  <g clip-path="url(#cl_1d)">
    <path fill="#5D237A" transform="matrix(0.999513 0.070728 -0.070728 0.999513 410.648 271.187)" d="M6.10352e-07 5.18799e-06L65.2231 -3.37635L59.8178 -36.9319L-7.06226 -34.0306L6.10352e-07 5.18799e-06Z"></path>
    <path fill="#5D237A" transform="matrix(0.999513 0.070728 -0.070728 0.999513 411.65 184.513)" d="M6.10352e-07 5.18799e-06L65.2231 -3.37635L59.8178 -36.9319L-7.06226 -34.0306L6.10352e-07 5.18799e-06Z"></path>
  </g>
  <path fill="#FFC530" transform="matrix(1.00201 0 0 1.00201 407.406 232.003)" d="M-4.9 -20.18C1.35 -20.78 13.85 -8.57 15.04 -2.02C16.23 4.53 4.46 20.78 1.49 20.18C-1.48 19.58 -7.25 7.07 -14.13 -4.7C-16.23 -8.3 -11.15 -19.58 -4.9 -20.18Z"></path>
  <path transform="matrix(1.00201 0 0 1.00201 379.53 217.744)" d="M0 -7.14C1.97166 -7.14 3.57 -3.94331 3.57 0C3.57 3.94331 1.97166 7.14 0 7.14C-1.97166 7.14 -3.57 3.94331 -3.57 0C-3.57 -3.94331 -1.97166 -7.14 0 -7.14Z"></path>
  <clipPath id="cl_1f">
    <path d="M390.262 193.285C388.468 190.901 335.973 189.107 332.987 195.67C330.001 202.233 341.935 233.256 346.113 238.025C350.291 242.795 389.66 238.025 392.045 234.448C394.43 230.871 392.045 195.67 390.252 193.285C390.252 193.285 390.262 193.285 390.262 193.285Z"></path>
  </clipPath>
  <g clip-path="url(#cl_1f)">
    <path fill="#5D237A" transform="matrix(1.00201 0 0 1.00201 333.493 279.203)" d="M6.10352e-07 5.18799e-06L65.2231 -3.37635L59.8178 -36.9319L-7.06226 -34.0306L6.10352e-07 5.18799e-06Z"></path>
    <path fill="#5D237A" transform="matrix(1.00201 0 0 1.00201 331.489 190.525)" d="M6.10352e-07 5.18799e-06L65.2231 -3.37635L59.8178 -36.9319L-7.06226 -34.0306L6.10352e-07 5.18799e-06Z"></path>
  </g>
  <path fill="#754091" transform="matrix(1.00201 0 0 1.00201 245.075 154.815)" d="M63.7506 70.1461C53.09 58.4861 5.72 32.055 -6.82 -77.865C-7.91 -87.395 -11.02 -86.465 -20.29 -80.845C-40 -68.905 -67.28 -6.765 -58.46 13.115C-50.52 31.015 1.17 85.715 13.16 86.425C13.8224 93.1002 13.16 107.025 8.0499 114.167C25.9652 147.017 57.8051 103.814 62.3697 90.165C62.3697 90.165 68.2733 87.5812 63.7506 70.1461Z"></path>
  <path fill="#754091" transform="matrix(1.00201 0 0 1.00201 254.799 59.3028)" d="M-10.195 27.425C-8.505 13.305 -5.005 -0.0150003 1.985 -8.915C6.425 -14.565 29.225 -35.685 12.395 -34.135C5.325 -33.485 -6.435 -27.355 -11.985 -21.425C-17.535 -15.495 -29.225 34.205 -18.335 35.295C-14.395 35.685 -11.385 30.575 -10.195 27.425C-10.195 27.425 -10.195 27.425 -10.195 27.425Z"></path>
  <path fill="#754091" transform="matrix(1.00201 0 0 1.00201 224.188 60.0593)" d="M10.755 -13.99C12.605 -18.98 28.165 -31.19 18.665 -30.37C14.285 -29.99 -3.325 -17.11 -6.185 -13.99C-28.165 9.97 1.155 31.19 8.495 29.49C11.245 28.86 3.115 6.67 10.755 -13.99C10.755 -13.99 10.755 -13.99 10.755 -13.99Z"></path>
  <path fill="#754091" transform="matrix(1.00201 0 0 1.00201 201.167 68.6716)" d="M16.23 13.555C3.81 -1.125 16.19 -15.195 10.58 -16.375C-16.23 -7.775 2.67 16.375 16.23 13.555Z"></path>
  <path fill="#5D237A" transform="matrix(1.00201 0 0 1.00201 207.855 164.875)" d="M5.035 -76.805C1.835 -73.805 -50.465 -16.515 -42.655 -5.415C-37.915 1.325 -29.375 5.085 -21.115 5.855C-30.615 9.335 -37.325 6.375 -46.065 2.075C-45.345 8.185 -41.535 13.065 -37.995 17.875C-16.705 46.765 49.285 76.525 50.465 76.805C27.535 64.395 -10.375 19.195 -15.025 -0.495C-16.955 -8.645 -11.185 -47.415 5.055 -76.795C5.055 -76.795 5.035 -76.805 5.035 -76.805Z"></path>
  <path fill="#5D237A" transform="matrix(0.997364 0.0963999 -0.0963999 0.997364 236.893 91.8832)" d="M4.005 -33.565C-5.665 -34.205 -13.045 -10.885 -10.835 -0.635C-9.025 7.765 2.825 32.475 13.045 34.205C-0.505001 -3.065 12.485 -32.995 4.005 -33.555C4.005 -33.555 4.005 -33.565 4.005 -33.565Z"></path>
</svg>
